<?xml version="1.0" encoding="UTF-8"?>
<svg width="321px" height="104px" viewBox="0 0 321 104" version="1.1" xmlns="http://www.w3.org/2000/svg" xmlns:xlink="http://www.w3.org/1999/xlink">
    <!-- Generator: Sketch 53.1 (72631) - https://sketchapp.com -->
    <title>logo / universe-logo</title>
    <desc>Created with Sketch.</desc>
    <g id="Symbols" stroke="none" stroke-width="1" fill="none" fill-rule="evenodd">
        <g id="Logo-/-universe-logo" fill="#000000">
            <g id="universe-logo">
                <path d="M131.6895,55.2741 L131.6895,41.0581 L138.2055,41.0581 L138.2055,54.5351 C138.2055,58.1341 137.2075,60.9981 135.2405,63.0451 C133.2695,65.0961 130.5025,66.1361 127.0135,66.1361 C123.5245,66.1361 120.7635,65.0951 118.8085,63.0441 C116.8585,60.9971 115.8695,58.1331 115.8695,54.5351 L115.8695,41.0581 L122.3845,41.0581 L122.3845,55.2741 C122.3845,57.0861 122.7465,58.3921 123.4585,59.1571 C124.1645,59.9161 125.3605,60.3001 127.0135,60.3001 C128.6975,60.3001 129.9085,59.9161 130.6145,59.1571 C131.3285,58.3901 131.6895,57.0841 131.6895,55.2741 Z M155.6895,40.6833 C159.1135,40.6833 161.8365,41.5963 163.7825,43.3963 C165.7375,45.2043 166.7285,47.7613 166.7285,50.9963 L166.7285,65.7613 L160.2125,65.7613 L160.2125,50.5033 C160.2125,49.8993 160.1585,49.3923 160.0505,48.9963 C159.9465,48.6153 159.7305,48.2043 159.4095,47.7753 C159.1085,47.3743 158.5945,47.0653 157.8805,46.8553 C156.3145,46.3963 153.5985,46.4153 150.8375,46.8813 L150.8375,65.7613 L144.3225,65.7613 L144.3225,43.4513 L144.5305,43.3473 C148.0825,41.5793 151.8355,40.6833 155.6895,40.6833 Z M173.408,65.7614 L173.408,41.0584 L179.924,41.0584 L179.924,65.7614 L173.408,65.7614 Z M173.314,38.5504 L173.314,32.5274 L179.97,32.5274 L179.97,38.5504 L173.314,38.5504 Z M197.0801,58.4235 L202.8091,41.0585 L209.8121,41.0585 L200.3611,65.7615 L193.8461,65.7615 L184.3941,41.0585 L191.3511,41.0585 L197.0801,58.4235 Z M223.1895,46.1208 C221.8525,46.1208 220.8455,46.5308 220.1085,47.3758 C219.4145,48.1718 218.9725,49.4678 218.7935,51.2298 L227.6215,51.2298 C227.4335,49.8388 226.9805,48.6408 226.2725,47.6628 C225.5205,46.6258 224.5115,46.1208 223.1895,46.1208 Z M223.3305,40.6368 C226.9485,40.6368 229.7315,41.8108 231.6025,44.1278 C233.4545,46.4198 234.3925,49.2748 234.3925,52.6128 C234.3925,53.9888 234.3605,54.9748 234.2945,55.6268 L234.2605,55.9648 L218.7955,55.9648 C218.9875,57.6878 219.5435,58.8588 220.4525,59.4468 C221.4705,60.1058 222.8265,60.4408 224.4785,60.4408 C227.2225,60.4408 229.9135,59.8298 232.4755,58.6258 L233.0095,58.3738 L233.0095,63.8288 L232.8135,63.9348 C230.1145,65.3958 227.0175,66.1368 223.6115,66.1368 C222.5315,66.1368 221.4995,66.0478 220.5435,65.8728 C219.5705,65.6938 218.5515,65.3178 217.5165,64.7548 C216.4755,64.1878 215.5665,63.4578 214.8175,62.5838 C214.0615,61.7038 213.4355,60.4798 212.9585,58.9468 C212.4845,57.4258 212.2445,55.6488 212.2445,53.6678 C212.2445,49.7598 213.1325,46.5848 214.8845,44.2328 C216.6625,41.8468 219.5035,40.6368 223.3305,40.6368 Z M245.3018,41.4479 C247.3928,40.9719 249.4998,40.7149 251.5668,40.6829 L251.9478,40.6769 L251.9478,46.3739 L251.5768,46.3789 C249.3418,46.4079 247.3868,46.6449 245.7598,47.0869 L245.7598,65.7609 L239.2438,65.7609 L239.2438,43.3279 L239.4578,43.2259 C239.8568,43.0379 240.3948,42.8169 241.1058,42.5519 C241.8128,42.2899 243.1858,41.9269 245.3018,41.4479 Z M269.0791,51.4567 C270.2571,51.9767 271.2721,52.8637 272.0991,54.0947 C272.9261,55.3277 273.3461,56.9087 273.3461,58.7937 C273.3461,60.9077 272.4751,62.6837 270.7571,64.0727 C269.0631,65.4417 266.8041,66.1367 264.0411,66.1367 C261.2391,66.1367 258.6231,65.4647 256.2641,64.1387 L256.0721,64.0307 L256.0721,57.9977 L256.6561,58.3887 C258.6921,59.7507 260.9001,60.4407 263.2211,60.4407 C265.1681,60.4407 265.9311,60.1697 266.2261,59.9417 C266.6331,59.6307 266.8301,59.1627 266.8301,58.5117 C266.8301,57.9487 266.5071,57.4997 265.8421,57.1367 C265.0821,56.7217 264.1451,56.3527 263.0581,56.0387 C261.9351,55.7157 260.7971,55.3287 259.6741,54.8877 C258.4971,54.4257 257.4821,53.6527 256.6551,52.5937 C255.8171,51.5197 255.3921,50.1567 255.3921,48.5427 C255.3921,46.0217 256.2981,44.0557 258.0831,42.6947 C259.8381,41.3597 262.0481,40.6837 264.6501,40.6837 C267.0811,40.6837 269.3441,41.2757 271.3761,42.4437 L271.5641,42.5527 L271.5641,47.7477 L271.0291,47.4947 C269.4631,46.7547 267.6561,46.3787 265.6581,46.3787 C263.1701,46.3787 261.9081,46.9337 261.9081,48.0257 C261.9081,48.5487 262.2231,48.9577 262.8701,49.2747 C263.6241,49.6457 264.5611,49.9777 265.6581,50.2607 C266.8001,50.5547 267.9501,50.9567 269.0791,51.4567 Z M288.3223,46.1208 C286.9853,46.1208 285.9783,46.5308 285.2413,47.3758 C284.5473,48.1718 284.1053,49.4678 283.9263,51.2298 L292.7543,51.2298 C292.5663,49.8388 292.1133,48.6408 291.4053,47.6628 C290.6533,46.6258 289.6443,46.1208 288.3223,46.1208 Z M296.7353,44.1278 C298.5873,46.4198 299.5253,49.2748 299.5253,52.6128 C299.5253,53.9888 299.4933,54.9748 299.4273,55.6268 L299.3933,55.9648 L283.9283,55.9648 C284.1203,57.6878 284.6763,58.8588 285.5853,59.4468 C286.6033,60.1058 287.9593,60.4408 289.6113,60.4408 C292.3553,60.4408 295.0463,59.8298 297.6083,58.6258 L298.1423,58.3738 L298.1423,63.8288 L297.9463,63.9348 C295.2473,65.3958 292.1503,66.1368 288.7443,66.1368 C287.6643,66.1368 286.6323,66.0478 285.6763,65.8728 C284.7033,65.6938 283.6843,65.3178 282.6493,64.7548 C281.6083,64.1878 280.6993,63.4578 279.9503,62.5838 C279.1943,61.7038 278.5683,60.4798 278.0913,58.9468 C277.6173,57.4258 277.3773,55.6488 277.3773,53.6678 C277.3773,49.7598 278.2653,46.5848 280.0173,44.2328 C281.7953,41.8468 284.6363,40.6368 288.4633,40.6368 C292.0813,40.6368 294.8643,41.8108 296.7353,44.1278 Z M24.3520179,32.588785 L27.7040359,34.6168224 L24.3520179,36.6448598 L21,34.6168224 L24.3520179,32.588785 Z M36.0112108,32.588785 L39.3632287,34.6168224 L36.0112108,36.6448598 L32.6591928,34.6168224 L36.0112108,32.588785 Z M47.6704036,32.588785 L51.0224215,34.6168224 L47.6704036,36.6448598 L44.3183857,34.6168224 L47.6704036,32.588785 Z M59.3295964,32.588785 L62.6816143,34.6168224 L59.3295964,36.6448598 L55.9775785,34.6168224 L59.3295964,32.588785 Z M70.9887892,32.588785 L74.3408072,34.6168224 L70.9887892,36.6448598 L67.6367713,34.6168224 L70.9887892,32.588785 Z M82.6479821,32.588785 L86,34.6168224 L82.6479821,36.6448598 L79.2959641,34.6168224 L82.6479821,32.588785 Z M24.3520179,44.1775701 L27.7040359,46.2056075 L24.3520179,48.2336449 L21,46.2056075 L24.3520179,44.1775701 Z M36.0112108,44.1775701 L39.3632287,46.2056075 L36.0112108,48.2336449 L32.6591928,46.2056075 L36.0112108,44.1775701 Z M47.6704036,44.1775701 L51.0224215,46.2056075 L47.6704036,48.2336449 L44.3183857,46.2056075 L47.6704036,44.1775701 Z M59.3295964,44.1775701 L62.6816143,46.2056075 L59.3295964,48.2336449 L55.9775785,46.2056075 L59.3295964,44.1775701 Z M70.9887892,44.1775701 L74.3408072,46.2056075 L70.9887892,48.2336449 L67.6367713,46.2056075 L70.9887892,44.1775701 Z M82.6479821,44.1775701 L86,46.2056075 L82.6479821,48.2336449 L79.2959641,46.2056075 L82.6479821,44.1775701 Z M24.3520179,55.7663551 L27.7040359,57.7943925 L24.3520179,59.8224299 L21,57.7943925 L24.3520179,55.7663551 Z M36.0112108,55.7663551 L39.3632287,57.7943925 L36.0112108,59.8224299 L32.6591928,57.7943925 L36.0112108,55.7663551 Z M47.6704036,55.7663551 L51.0224215,57.7943925 L47.6704036,59.8224299 L44.3183857,57.7943925 L47.6704036,55.7663551 Z M59.3295964,55.7663551 L62.6816143,57.7943925 L59.3295964,59.8224299 L55.9775785,57.7943925 L59.3295964,55.7663551 Z M70.9887892,55.7663551 L74.3408072,57.7943925 L70.9887892,59.8224299 L67.6367713,57.7943925 L70.9887892,55.7663551 Z M82.6479821,55.7663551 L86,57.7943925 L82.6479821,59.8224299 L79.2959641,57.7943925 L82.6479821,55.7663551 Z M24.3520179,67.3551402 L27.7040359,69.3831776 L24.3520179,71.411215 L21,69.3831776 L24.3520179,67.3551402 Z M36.0112108,67.3551402 L39.3632287,69.3831776 L36.0112108,71.411215 L32.6591928,69.3831776 L36.0112108,67.3551402 Z M47.6704036,67.3551402 L51.0224215,69.3831776 L47.6704036,71.411215 L44.3183857,69.3831776 L47.6704036,67.3551402 Z M59.3295964,67.3551402 L62.6816143,69.3831776 L59.3295964,71.411215 L55.9775785,69.3831776 L59.3295964,67.3551402 Z M70.9887892,67.3551402 L74.3408072,69.3831776 L70.9887892,71.411215 L67.6367713,69.3831776 L70.9887892,67.3551402 Z M82.6479821,67.3551402 L86,69.3831776 L82.6479821,71.411215 L79.2959641,69.3831776 L82.6479821,67.3551402 Z M36.0112108,78.9439252 L39.3632287,80.9719626 L36.0112108,83 L32.6591928,80.9719626 L36.0112108,78.9439252 Z M47.6704036,78.9439252 L51.0224215,80.9719626 L47.6704036,83 L44.3183857,80.9719626 L47.6704036,78.9439252 Z M59.3295964,78.9439252 L62.6816143,80.9719626 L59.3295964,83 L55.9775785,80.9719626 L59.3295964,78.9439252 Z M70.9887892,78.9439252 L74.3408072,80.9719626 L70.9887892,83 L67.6367713,80.9719626 L70.9887892,78.9439252 Z M36.0112108,21 L39.3632287,23.0280374 L36.0112108,25.0560748 L32.6591928,23.0280374 L36.0112108,21 Z M47.6704036,21 L51.0224215,23.0280374 L47.6704036,25.0560748 L44.3183857,23.0280374 L47.6704036,21 Z M59.3295964,21 L62.6816143,23.0280374 L59.3295964,25.0560748 L55.9775785,23.0280374 L59.3295964,21 Z M70.9887892,21 L74.3408072,23.0280374 L70.9887892,25.0560748 L67.6367713,23.0280374 L70.9887892,21 Z"></path>
            </g>
        </g>
    </g>
</svg>