<?xml version="1.0" encoding="UTF-8"?>
<svg width="326px" height="105px" viewBox="0 0 326 105" version="1.1" xmlns="http://www.w3.org/2000/svg" xmlns:xlink="http://www.w3.org/1999/xlink">
    <!-- Generator: Sketch 53.1 (72631) - https://sketchapp.com -->
    <title>logo / universe-logo-white</title>
    <desc>Created with Sketch.</desc>
    <g id="Symbols" stroke="none" stroke-width="1" fill="none" fill-rule="evenodd">
        <g id="Logo-/-universe-logo-white" fill="#FFFFFF">
            <g id="universe-logo-white">
                <path d="M137.6895,56.2741 L137.6895,42.0581 L144.2055,42.0581 L144.2055,55.5351 C144.2055,59.1341 143.2075,61.9981 141.2405,64.0451 C139.2695,66.0961 136.5025,67.1361 133.0135,67.1361 C129.5245,67.1361 126.7635,66.0951 124.8085,64.0441 C122.8585,61.9971 121.8695,59.1331 121.8695,55.5351 L121.8695,42.0581 L128.3845,42.0581 L128.3845,56.2741 C128.3845,58.0861 128.7465,59.3921 129.4585,60.1571 C130.1645,60.9161 131.3605,61.3001 133.0135,61.3001 C134.6975,61.3001 135.9085,60.9161 136.6145,60.1571 C137.3285,59.3901 137.6895,58.0841 137.6895,56.2741 Z M161.6895,41.6833 C165.1135,41.6833 167.8365,42.5963 169.7825,44.3963 C171.7375,46.2043 172.7285,48.7613 172.7285,51.9963 L172.7285,66.7613 L166.2125,66.7613 L166.2125,51.5033 C166.2125,50.8993 166.1585,50.3923 166.0505,49.9963 C165.9465,49.6153 165.7305,49.2043 165.4095,48.7753 C165.1085,48.3743 164.5945,48.0653 163.8805,47.8553 C162.3145,47.3963 159.5985,47.4153 156.8375,47.8813 L156.8375,66.7613 L150.3225,66.7613 L150.3225,44.4513 L150.5305,44.3473 C154.0825,42.5793 157.8355,41.6833 161.6895,41.6833 Z M179.408,66.7614 L179.408,42.0584 L185.924,42.0584 L185.924,66.7614 L179.408,66.7614 Z M179.314,39.5504 L179.314,33.5274 L185.97,33.5274 L185.97,39.5504 L179.314,39.5504 Z M203.0801,59.4235 L208.8091,42.0585 L215.8121,42.0585 L206.3611,66.7615 L199.8461,66.7615 L190.3941,42.0585 L197.3511,42.0585 L203.0801,59.4235 Z M229.1895,47.1208 C227.8525,47.1208 226.8455,47.5308 226.1085,48.3758 C225.4145,49.1718 224.9725,50.4678 224.7935,52.2298 L233.6215,52.2298 C233.4335,50.8388 232.9805,49.6408 232.2725,48.6628 C231.5205,47.6258 230.5115,47.1208 229.1895,47.1208 Z M229.3305,41.6368 C232.9485,41.6368 235.7315,42.8108 237.6025,45.1278 C239.4545,47.4198 240.3925,50.2748 240.3925,53.6128 C240.3925,54.9888 240.3605,55.9748 240.2945,56.6268 L240.2605,56.9648 L224.7955,56.9648 C224.9875,58.6878 225.5435,59.8588 226.4525,60.4468 C227.4705,61.1058 228.8265,61.4408 230.4785,61.4408 C233.2225,61.4408 235.9135,60.8298 238.4755,59.6258 L239.0095,59.3738 L239.0095,64.8288 L238.8135,64.9348 C236.1145,66.3958 233.0175,67.1368 229.6115,67.1368 C228.5315,67.1368 227.4995,67.0478 226.5435,66.8728 C225.5705,66.6938 224.5515,66.3178 223.5165,65.7548 C222.4755,65.1878 221.5665,64.4578 220.8175,63.5838 C220.0615,62.7038 219.4355,61.4798 218.9585,59.9468 C218.4845,58.4258 218.2445,56.6488 218.2445,54.6678 C218.2445,50.7598 219.1325,47.5848 220.8845,45.2328 C222.6625,42.8468 225.5035,41.6368 229.3305,41.6368 Z M251.3018,42.4479 C253.3928,41.9719 255.4998,41.7149 257.5668,41.6829 L257.9478,41.6769 L257.9478,47.3739 L257.5768,47.3789 C255.3418,47.4079 253.3868,47.6449 251.7598,48.0869 L251.7598,66.7609 L245.2438,66.7609 L245.2438,44.3279 L245.4578,44.2259 C245.8568,44.0379 246.3948,43.8169 247.1058,43.5519 C247.8128,43.2899 249.1858,42.9269 251.3018,42.4479 Z M275.0791,52.4567 C276.2571,52.9767 277.2721,53.8637 278.0991,55.0947 C278.9261,56.3277 279.3461,57.9087 279.3461,59.7937 C279.3461,61.9077 278.4751,63.6837 276.7571,65.0727 C275.0631,66.4417 272.8041,67.1367 270.0411,67.1367 C267.2391,67.1367 264.6231,66.4647 262.2641,65.1387 L262.0721,65.0307 L262.0721,58.9977 L262.6561,59.3887 C264.6921,60.7507 266.9001,61.4407 269.2211,61.4407 C271.1681,61.4407 271.9311,61.1697 272.2261,60.9417 C272.6331,60.6307 272.8301,60.1627 272.8301,59.5117 C272.8301,58.9487 272.5071,58.4997 271.8421,58.1367 C271.0821,57.7217 270.1451,57.3527 269.0581,57.0387 C267.9351,56.7157 266.7971,56.3287 265.6741,55.8877 C264.4971,55.4257 263.4821,54.6527 262.6551,53.5937 C261.8171,52.5197 261.3921,51.1567 261.3921,49.5427 C261.3921,47.0217 262.2981,45.0557 264.0831,43.6947 C265.8381,42.3597 268.0481,41.6837 270.6501,41.6837 C273.0811,41.6837 275.3441,42.2757 277.3761,43.4437 L277.5641,43.5527 L277.5641,48.7477 L277.0291,48.4947 C275.4631,47.7547 273.6561,47.3787 271.6581,47.3787 C269.1701,47.3787 267.9081,47.9337 267.9081,49.0257 C267.9081,49.5487 268.2231,49.9577 268.8701,50.2747 C269.6241,50.6457 270.5611,50.9777 271.6581,51.2607 C272.8001,51.5547 273.9501,51.9567 275.0791,52.4567 Z M294.3223,47.1208 C292.9853,47.1208 291.9783,47.5308 291.2413,48.3758 C290.5473,49.1718 290.1053,50.4678 289.9263,52.2298 L298.7543,52.2298 C298.5663,50.8388 298.1133,49.6408 297.4053,48.6628 C296.6533,47.6258 295.6443,47.1208 294.3223,47.1208 Z M302.7353,45.1278 C304.5873,47.4198 305.5253,50.2748 305.5253,53.6128 C305.5253,54.9888 305.4933,55.9748 305.4273,56.6268 L305.3933,56.9648 L289.9283,56.9648 C290.1203,58.6878 290.6763,59.8588 291.5853,60.4468 C292.6033,61.1058 293.9593,61.4408 295.6113,61.4408 C298.3553,61.4408 301.0463,60.8298 303.6083,59.6258 L304.1423,59.3738 L304.1423,64.8288 L303.9463,64.9348 C301.2473,66.3958 298.1503,67.1368 294.7443,67.1368 C293.6643,67.1368 292.6323,67.0478 291.6763,66.8728 C290.7033,66.6938 289.6843,66.3178 288.6493,65.7548 C287.6083,65.1878 286.6993,64.4578 285.9503,63.5838 C285.1943,62.7038 284.5683,61.4798 284.0913,59.9468 C283.6173,58.4258 283.3773,56.6488 283.3773,54.6678 C283.3773,50.7598 284.2653,47.5848 286.0173,45.2328 C287.7953,42.8468 290.6363,41.6368 294.4633,41.6368 C298.0813,41.6368 300.8643,42.8108 302.7353,45.1278 Z M47.2961948,23.0954024 L44.8143704,21.547546 L47.2961948,20.0005 L49.7772071,21.547546 L47.2961948,23.0954024 Z M34.8888596,23.0954024 L32.4070352,21.547546 L34.8888596,20.0005 L37.3698719,21.547546 L34.8888596,23.0954024 Z M59.7032052,23.0954024 L57.2221929,21.547546 L59.7032052,20.0005 L62.1850296,21.547546 L59.7032052,23.0954024 Z M72.1105404,23.0954024 L69.6295281,21.547546 L72.1105404,20.0005 L74.5923648,21.547546 L72.1105404,23.0954024 Z M22.4815244,35.4764705 L19.9997,33.9286141 L22.4815244,32.3815682 L24.9633487,33.9286141 L22.4815244,35.4764705 Z M34.8888596,35.4764705 L32.4070352,33.9286141 L34.8888596,32.3815682 L37.3698719,33.9286141 L34.8888596,35.4764705 Z M47.2961948,35.4764705 L44.8143704,33.9286141 L47.2961948,32.3815682 L49.7772071,33.9286141 L47.2961948,35.4764705 Z M59.7032052,35.4764705 L57.2221929,33.9286141 L59.7032052,32.3815682 L62.1850296,33.9286141 L59.7032052,35.4764705 Z M72.1105404,35.4764705 L69.6295281,33.9286141 L72.1105404,32.3815682 L74.5923648,33.9286141 L72.1105404,35.4764705 Z M84.5178756,35.4764705 L82.0360513,33.9286141 L84.5178756,32.3815682 L86.9997,33.9286141 L84.5178756,35.4764705 Z M22.4815244,47.8576197 L19.9997,46.3097633 L22.4815244,44.7619069 L24.9633487,46.3097633 L22.4815244,47.8576197 Z M34.8888596,47.8576197 L32.4070352,46.3097633 L34.8888596,44.7619069 L37.3698719,46.3097633 L34.8888596,47.8576197 Z M47.2961948,47.8576197 L44.8143704,46.3097633 L47.2961948,44.7619069 L49.7772071,46.3097633 L47.2961948,47.8576197 Z M59.7032052,47.8576197 L57.2221929,46.3097633 L59.7032052,44.7619069 L62.1850296,46.3097633 L59.7032052,47.8576197 Z M72.1105404,47.8576197 L69.6295281,46.3097633 L72.1105404,44.7619069 L74.5923648,46.3097633 L72.1105404,47.8576197 Z M84.5178756,47.8576197 L82.0360513,46.3097633 L84.5178756,44.7619069 L86.9997,46.3097633 L84.5178756,47.8576197 Z M22.4815244,60.2386879 L19.9997,58.6908315 L22.4815244,57.1429751 L24.9633487,58.6908315 L22.4815244,60.2386879 Z M34.8888596,60.2386879 L32.4070352,58.6908315 L34.8888596,57.1429751 L37.3698719,58.6908315 L34.8888596,60.2386879 Z M47.2961948,60.2386879 L44.8143704,58.6908315 L47.2961948,57.1429751 L49.7772071,58.6908315 L47.2961948,60.2386879 Z M59.7032052,60.2386879 L57.2221929,58.6908315 L59.7032052,57.1429751 L62.1850296,58.6908315 L59.7032052,60.2386879 Z M72.1105404,60.2386879 L69.6295281,58.6908315 L72.1105404,57.1429751 L74.5923648,58.6908315 L72.1105404,60.2386879 Z M84.5178756,60.2386879 L82.0360513,58.6908315 L84.5178756,57.1429751 L86.9997,58.6908315 L84.5178756,60.2386879 Z M22.4815244,72.619756 L19.9997,71.0718996 L22.4815244,69.5240433 L24.9633487,71.0718996 L22.4815244,72.619756 Z M34.8888596,72.619756 L32.4070352,71.0718996 L34.8888596,69.5240433 L37.3698719,71.0718996 L34.8888596,72.619756 Z M47.2961948,72.619756 L44.8143704,71.0718996 L47.2961948,69.5240433 L49.7772071,71.0718996 L47.2961948,72.619756 Z M59.7032052,72.619756 L57.2221929,71.0718996 L59.7032052,69.5240433 L62.1850296,71.0718996 L59.7032052,72.619756 Z M72.1105404,72.619756 L69.6295281,71.0718996 L72.1105404,69.5240433 L74.5923648,71.0718996 L72.1105404,72.619756 Z M84.5178756,72.619756 L82.0360513,71.0718996 L84.5178756,69.5240433 L86.9997,71.0718996 L84.5178756,72.619756 Z M34.8888596,85.0005 L32.4070352,83.4526436 L34.8888596,81.9055976 L37.3698719,83.4526436 L34.8888596,85.0005 Z M47.2961948,85.0005 L44.8143704,83.4526436 L47.2961948,81.9055976 L49.7772071,83.4526436 L47.2961948,85.0005 Z M59.7032052,85.0005 L57.2221929,83.4526436 L59.7032052,81.9055976 L62.1850296,83.4526436 L59.7032052,85.0005 Z M72.1105404,85.0005 L69.6295281,83.4526436 L72.1105404,81.9055976 L74.5923648,83.4526436 L72.1105404,85.0005 Z" id="universe-logo"></path>
            </g>
        </g>
    </g>
</svg>