<?xml version="1.0" encoding="UTF-8"?>
<svg width="656px" height="290px" viewBox="0 0 656 290" version="1.1" xmlns="http://www.w3.org/2000/svg" xmlns:xlink="http://www.w3.org/1999/xlink">
    <!-- Generator: Sketch 53.2 (72643) - https://sketchapp.com -->
    <title>universe-rhombi</title>
    <desc>Created with Sketch.</desc>
    <g id="Page-1" stroke="none" stroke-width="1" fill="none" fill-rule="evenodd">
        <g id="universe.engineering-v1.0.1" transform="translate(-769.000000, -212.000000)" fill="#000000">
            <path d="M777.0001,212 L785.0001,216.999 L777.0001,222 L769.0001,216.999 L777.0001,212 Z M769,257 L777,252 L785,257 L777,261.999 L769,257 Z M769,296.9996 L777,292.0006 L785,296.9996 L777,301.9996 L769,296.9996 Z M769,337.0001 L777,332.0001 L785,337.0001 L777,341.9991 L769,337.0001 Z M769,376.9997 L777,371.9997 L785,376.9997 L777,381.9997 L769,376.9997 Z M769,416.9993 L777,412.0003 L785,416.9993 L777,421.9993 L769,416.9993 Z M769,456.9998 L777,451.9998 L785,456.9998 L777,461.9988 L769,456.9998 Z M769,496.9994 L777,492.0004 L785,496.9994 L777,501.9994 L769,496.9994 Z M816.9997,212 L824.9997,216.999 L816.9997,222 L808.9997,216.999 L816.9997,212 Z M817,261.9997 L809,256.9997 L817,251.9997 L825,256.9997 L817,261.9997 Z M817,301.9997 L809,296.9997 L817,291.9997 L825,296.9997 L817,301.9997 Z M817,341.9997 L809,336.9997 L817,331.9997 L825,336.9997 L817,341.9997 Z M817,381.9997 L809,376.9997 L817,371.9997 L825,376.9997 L817,381.9997 Z M817,421.9997 L809,416.9997 L817,411.9997 L825,416.9997 L817,421.9997 Z M817,461.9997 L809,456.9997 L817,451.9997 L825,456.9997 L817,461.9997 Z M808.9996,496.9994 L816.9996,492.0004 L824.9996,496.9994 L816.9996,501.9994 L808.9996,496.9994 Z M857.0002,212 L865.0002,216.999 L857.0002,222 L849.0002,216.999 L857.0002,212 Z M857,261.9997 L849,256.9997 L857,251.9997 L865,256.9997 L857,261.9997 Z M857,301.9997 L849,296.9997 L857,291.9997 L865,296.9997 L857,301.9997 Z M857,341.9997 L849,336.9997 L857,331.9997 L865,336.9997 L857,341.9997 Z M857,381.9997 L849,376.9997 L857,371.9997 L865,376.9997 L857,381.9997 Z M857,421.9997 L849,416.9997 L857,411.9997 L865,416.9997 L857,421.9997 Z M857,461.9997 L849,456.9997 L857,451.9997 L865,456.9997 L857,461.9997 Z M849.0001,496.9994 L857.0001,492.0004 L865.0001,496.9994 L857.0001,501.9994 L849.0001,496.9994 Z M896.9998,212 L904.9998,216.999 L896.9998,222 L888.9998,216.999 L896.9998,212 Z M897,261.9997 L889,256.9997 L897,251.9997 L905,256.9997 L897,261.9997 Z M897,301.9997 L889,296.9997 L897,291.9997 L905,296.9997 L897,301.9997 Z M897,341.9997 L889,336.9997 L897,331.9997 L905,336.9997 L897,341.9997 Z M897,381.9997 L889,376.9997 L897,371.9997 L905,376.9997 L897,381.9997 Z M897,421.9997 L889,416.9997 L897,411.9997 L905,416.9997 L897,421.9997 Z M897,461.9997 L889,456.9997 L897,451.9997 L905,456.9997 L897,461.9997 Z M888.9997,496.9994 L896.9997,492.0004 L904.9997,496.9994 L896.9997,501.9994 L888.9997,496.9994 Z M937.0003,212 L945.0003,216.999 L937.0003,222 L929.0003,216.999 L937.0003,212 Z M937,261.9997 L929,256.9997 L937,251.9997 L945,256.9997 L937,261.9997 Z M937,301.9997 L929,296.9997 L937,291.9997 L945,296.9997 L937,301.9997 Z M937,341.9997 L929,336.9997 L937,331.9997 L945,336.9997 L937,341.9997 Z M937,381.9997 L929,376.9997 L937,371.9997 L945,376.9997 L937,381.9997 Z M937,421.9997 L929,416.9997 L937,411.9997 L945,416.9997 L937,421.9997 Z M937,461.9997 L929,456.9997 L937,451.9997 L945,456.9997 L937,461.9997 Z M929.0002,496.9994 L937.0002,492.0004 L945.0002,496.9994 L937.0002,501.9994 L929.0002,496.9994 Z M976.9999,212 L984.9999,216.999 L976.9999,222 L968.9999,216.999 L976.9999,212 Z M977,261.9997 L969,256.9997 L977,251.9997 L985,256.9997 L977,261.9997 Z M977,301.9997 L969,296.9997 L977,291.9997 L985,296.9997 L977,301.9997 Z M977,341.9997 L969,336.9997 L977,331.9997 L985,336.9997 L977,341.9997 Z M977,381.9997 L969,376.9997 L977,371.9997 L985,376.9997 L977,381.9997 Z M977,421.9997 L969,416.9997 L977,411.9997 L985,416.9997 L977,421.9997 Z M977,461.9997 L969,456.9997 L977,451.9997 L985,456.9997 L977,461.9997 Z M968.9998,496.9994 L976.9998,492.0004 L984.9998,496.9994 L976.9998,501.9994 L968.9998,496.9994 Z M1017.0004,212 L1024.9994,216.999 L1017.0004,222 L1009.0004,216.999 L1017.0004,212 Z M1017,261.9997 L1009,256.9997 L1017,251.9997 L1025,256.9997 L1017,261.9997 Z M1017,301.9997 L1009,296.9997 L1017,291.9997 L1025,296.9997 L1017,301.9997 Z M1017,341.9997 L1009,336.9997 L1017,331.9997 L1025,336.9997 L1017,341.9997 Z M1017,381.9997 L1009,376.9997 L1017,371.9997 L1025,376.9997 L1017,381.9997 Z M1017,421.9997 L1009,416.9997 L1017,411.9997 L1025,416.9997 L1017,421.9997 Z M1017,461.9997 L1009,456.9997 L1017,451.9997 L1025,456.9997 L1017,461.9997 Z M1009.0003,496.9994 L1017.0003,492.0004 L1024.9993,496.9994 L1017.0003,501.9994 L1009.0003,496.9994 Z M1057,212 L1065,216.999 L1057,222 L1049,216.999 L1057,212 Z M1057,261.9997 L1049,256.9997 L1057,251.9997 L1065,256.9997 L1057,261.9997 Z M1057,301.9997 L1049,296.9997 L1057,291.9997 L1065,296.9997 L1057,301.9997 Z M1057,341.9997 L1049,336.9997 L1057,331.9997 L1065,336.9997 L1057,341.9997 Z M1057,381.9997 L1049,376.9997 L1057,371.9997 L1065,376.9997 L1057,381.9997 Z M1057,421.9997 L1049,416.9997 L1057,411.9997 L1065,416.9997 L1057,421.9997 Z M1057,461.9997 L1049,456.9997 L1057,451.9997 L1065,456.9997 L1057,461.9997 Z M1048.9999,496.9994 L1056.9999,492.0004 L1064.9999,496.9994 L1056.9999,501.9994 L1048.9999,496.9994 Z M1096.9996,212 L1104.9996,216.999 L1096.9996,222 L1089.0006,216.999 L1096.9996,212 Z M1097,261.9997 L1089,256.9997 L1097,251.9997 L1105,256.9997 L1097,261.9997 Z M1097,301.9997 L1089,296.9997 L1097,291.9997 L1105,296.9997 L1097,301.9997 Z M1097,341.9997 L1089,336.9997 L1097,331.9997 L1105,336.9997 L1097,341.9997 Z M1097,381.9997 L1089,376.9997 L1097,371.9997 L1105,376.9997 L1097,381.9997 Z M1097,421.9997 L1089,416.9997 L1097,411.9997 L1105,416.9997 L1097,421.9997 Z M1097,461.9997 L1089,456.9997 L1097,451.9997 L1105,456.9997 L1097,461.9997 Z M1089.0004,496.9994 L1096.9994,492.0004 L1104.9994,496.9994 L1096.9994,501.9994 L1089.0004,496.9994 Z M1137.0001,212 L1145.0001,216.999 L1137.0001,222 L1129.0001,216.999 L1137.0001,212 Z M1137,261.9997 L1129,256.9997 L1137,251.9997 L1145,256.9997 L1137,261.9997 Z M1137,301.9997 L1129,296.9997 L1137,291.9997 L1145,296.9997 L1137,301.9997 Z M1137,341.9997 L1129,336.9997 L1137,331.9997 L1145,336.9997 L1137,341.9997 Z M1137,381.9997 L1129,376.9997 L1137,371.9997 L1145,376.9997 L1137,381.9997 Z M1137,421.9997 L1129,416.9997 L1137,411.9997 L1145,416.9997 L1137,421.9997 Z M1137,461.9997 L1129,456.9997 L1137,451.9997 L1145,456.9997 L1137,461.9997 Z M1129,496.9994 L1137,492.0004 L1145,496.9994 L1137,501.9994 L1129,496.9994 Z M1176.9997,212 L1184.9997,216.999 L1176.9997,222 L1168.9997,216.999 L1176.9997,212 Z M1177,261.9997 L1169,256.9997 L1177,251.9997 L1185,256.9997 L1177,261.9997 Z M1177,301.9997 L1169,296.9997 L1177,291.9997 L1185,296.9997 L1177,301.9997 Z M1177,341.9997 L1169,336.9997 L1177,331.9997 L1185,336.9997 L1177,341.9997 Z M1177,381.9997 L1169,376.9997 L1177,371.9997 L1185,376.9997 L1177,381.9997 Z M1177,421.9997 L1169,416.9997 L1177,411.9997 L1185,416.9997 L1177,421.9997 Z M1177,461.9997 L1169,456.9997 L1177,451.9997 L1185,456.9997 L1177,461.9997 Z M1168.9996,496.9994 L1176.9996,492.0004 L1184.9996,496.9994 L1176.9996,501.9994 L1168.9996,496.9994 Z M1217.0002,212 L1225.0002,216.999 L1217.0002,222 L1209.0002,216.999 L1217.0002,212 Z M1217,261.9997 L1209,256.9997 L1217,251.9997 L1225,256.9997 L1217,261.9997 Z M1217,301.9997 L1209,296.9997 L1217,291.9997 L1225,296.9997 L1217,301.9997 Z M1217,341.9997 L1209,336.9997 L1217,331.9997 L1225,336.9997 L1217,341.9997 Z M1217,381.9997 L1209,376.9997 L1217,371.9997 L1225,376.9997 L1217,381.9997 Z M1217,421.9997 L1209,416.9997 L1217,411.9997 L1225,416.9997 L1217,421.9997 Z M1217,461.9997 L1209,456.9997 L1217,451.9997 L1225,456.9997 L1217,461.9997 Z M1209.0001,496.9994 L1217.0001,492.0004 L1225.0001,496.9994 L1217.0001,501.9994 L1209.0001,496.9994 Z M1256.9998,212 L1264.9998,216.999 L1256.9998,222 L1248.9998,216.999 L1256.9998,212 Z M1257,261.9997 L1249,256.9997 L1257,251.9997 L1265,256.9997 L1257,261.9997 Z M1257,301.9997 L1249,296.9997 L1257,291.9997 L1265,296.9997 L1257,301.9997 Z M1257,341.9997 L1249,336.9997 L1257,331.9997 L1265,336.9997 L1257,341.9997 Z M1257,381.9997 L1249,376.9997 L1257,371.9997 L1265,376.9997 L1257,381.9997 Z M1257,421.9997 L1249,416.9997 L1257,411.9997 L1265,416.9997 L1257,421.9997 Z M1257,461.9997 L1249,456.9997 L1257,451.9997 L1265,456.9997 L1257,461.9997 Z M1248.9997,496.9994 L1256.9997,492.0004 L1264.9997,496.9994 L1256.9997,501.9994 L1248.9997,496.9994 Z M1297.0003,212 L1305.0003,216.999 L1297.0003,222 L1289.0003,216.999 L1297.0003,212 Z M1297,261.9997 L1289,256.9997 L1297,251.9997 L1305,256.9997 L1297,261.9997 Z M1297,301.9997 L1289,296.9997 L1297,291.9997 L1305,296.9997 L1297,301.9997 Z M1297,341.9997 L1289,336.9997 L1297,331.9997 L1305,336.9997 L1297,341.9997 Z M1297,381.9997 L1289,376.9997 L1297,371.9997 L1305,376.9997 L1297,381.9997 Z M1297,421.9997 L1289,416.9997 L1297,411.9997 L1305,416.9997 L1297,421.9997 Z M1297,461.9997 L1289,456.9997 L1297,451.9997 L1305,456.9997 L1297,461.9997 Z M1289.0002,496.9994 L1297.0002,492.0004 L1305.0002,496.9994 L1297.0002,501.9994 L1289.0002,496.9994 Z M1336.9999,212 L1344.9999,216.999 L1336.9999,222 L1328.9999,216.999 L1336.9999,212 Z M1337,261.9997 L1329,256.9997 L1337,251.9997 L1345,256.9997 L1337,261.9997 Z M1337,301.9997 L1329,296.9997 L1337,291.9997 L1345,296.9997 L1337,301.9997 Z M1337,341.9997 L1329,336.9997 L1337,331.9997 L1345,336.9997 L1337,341.9997 Z M1337,381.9997 L1329,376.9997 L1337,371.9997 L1345,376.9997 L1337,381.9997 Z M1337,421.9997 L1329,416.9997 L1337,411.9997 L1345,416.9997 L1337,421.9997 Z M1337,461.9997 L1329,456.9997 L1337,451.9997 L1345,456.9997 L1337,461.9997 Z M1328.9998,496.9994 L1336.9998,492.0004 L1344.9998,496.9994 L1336.9998,501.9994 L1328.9998,496.9994 Z M1377.0004,212 L1384.9994,216.999 L1377.0004,222 L1369.0004,216.999 L1377.0004,212 Z M1377,261.9997 L1369,256.9997 L1377,251.9997 L1385,256.9997 L1377,261.9997 Z M1377,301.9997 L1369,296.9997 L1377,291.9997 L1385,296.9997 L1377,301.9997 Z M1377,341.9997 L1369,336.9997 L1377,331.9997 L1385,336.9997 L1377,341.9997 Z M1377,381.9997 L1369,376.9997 L1377,371.9997 L1385,376.9997 L1377,381.9997 Z M1377,421.9997 L1369,416.9997 L1377,411.9997 L1385,416.9997 L1377,421.9997 Z M1377,461.9997 L1369,456.9997 L1377,451.9997 L1385,456.9997 L1377,461.9997 Z M1369.0003,496.9994 L1377.0003,492.0004 L1384.9993,496.9994 L1377.0003,501.9994 L1369.0003,496.9994 Z M1417,212 L1425,216.999 L1417,222 L1409,216.999 L1417,212 Z M1417,261.9997 L1409,256.9997 L1417,251.9997 L1425,256.9997 L1417,261.9997 Z M1417,301.9997 L1409,296.9997 L1417,291.9997 L1425,296.9997 L1417,301.9997 Z M1417,341.9997 L1409,336.9997 L1417,331.9997 L1425,336.9997 L1417,341.9997 Z M1417,381.9997 L1409,376.9997 L1417,371.9997 L1425,376.9997 L1417,381.9997 Z M1417,421.9997 L1409,416.9997 L1417,411.9997 L1425,416.9997 L1417,421.9997 Z M1417,461.9997 L1409,456.9997 L1417,451.9997 L1425,456.9997 L1417,461.9997 Z M1408.9999,496.9994 L1416.9999,492.0004 L1424.9999,496.9994 L1416.9999,501.9994 L1408.9999,496.9994 Z M1456.9996,212 L1464.9996,216.999 L1456.9996,222 L1449.0006,216.999 L1456.9996,212 Z M1457,261.9997 L1449,256.9997 L1457,251.9997 L1465,256.9997 L1457,261.9997 Z M1457,301.9997 L1449,296.9997 L1457,291.9997 L1465,296.9997 L1457,301.9997 Z M1457,341.9997 L1449,336.9997 L1457,331.9997 L1465,336.9997 L1457,341.9997 Z M1457,381.9997 L1449,376.9997 L1457,371.9997 L1465,376.9997 L1457,381.9997 Z M1457,421.9997 L1449,416.9997 L1457,411.9997 L1465,416.9997 L1457,421.9997 Z M1457,461.9997 L1449,456.9997 L1457,451.9997 L1465,456.9997 L1457,461.9997 Z M1449.0004,496.9994 L1456.9994,492.0004 L1464.9994,496.9994 L1456.9994,501.9994 L1449.0004,496.9994 Z M1497.0001,212 L1505.0001,216.999 L1497.0001,222 L1489.0001,216.999 L1497.0001,212 Z M1497,261.9997 L1489,256.9997 L1497,251.9997 L1505,256.9997 L1497,261.9997 Z M1497,301.9997 L1489,296.9997 L1497,291.9997 L1505,296.9997 L1497,301.9997 Z M1497,341.9997 L1489,336.9997 L1497,331.9997 L1505,336.9997 L1497,341.9997 Z M1497,381.9997 L1489,376.9997 L1497,371.9997 L1505,376.9997 L1497,381.9997 Z M1497,421.9997 L1489,416.9997 L1497,411.9997 L1505,416.9997 L1497,421.9997 Z M1497,461.9997 L1489,456.9997 L1497,451.9997 L1505,456.9997 L1497,461.9997 Z M1489,496.9994 L1497,492.0004 L1505,496.9994 L1497,501.9994 L1489,496.9994 Z M1536.9997,212 L1544.9997,216.999 L1536.9997,222 L1528.9997,216.999 L1536.9997,212 Z M1537,261.9997 L1529,256.9997 L1537,251.9997 L1545,256.9997 L1537,261.9997 Z M1537,301.9997 L1529,296.9997 L1537,291.9997 L1545,296.9997 L1537,301.9997 Z M1537,341.9997 L1529,336.9997 L1537,331.9997 L1545,336.9997 L1537,341.9997 Z M1537,381.9997 L1529,376.9997 L1537,371.9997 L1545,376.9997 L1537,381.9997 Z M1537,421.9997 L1529,416.9997 L1537,411.9997 L1545,416.9997 L1537,421.9997 Z M1537,461.9997 L1529,456.9997 L1537,451.9997 L1545,456.9997 L1537,461.9997 Z M1528.9996,496.9994 L1536.9996,492.0004 L1544.9996,496.9994 L1536.9996,501.9994 L1528.9996,496.9994 Z" id="universe-rhombi"></path>
        </g>
    </g>
</svg>