<?xml version="1.0" encoding="UTF-8"?>
<svg width="215px" height="56px" viewBox="0 0 215 56" version="1.1" xmlns="http://www.w3.org/2000/svg" xmlns:xlink="http://www.w3.org/1999/xlink">
    <!-- Generator: Sketch 53.1 (72631) - https://sketchapp.com -->
    <title>logo / universe-wordmark-white</title>
    <desc>Created with Sketch.</desc>
    <g id="Symbols" stroke="none" stroke-width="1" fill="none" fill-rule="evenodd">
        <g id="Logo-/-universe-wordmark-white" fill="#FFFFFF">
            <g id="universe-wordmark-white">
                <path d="M31.8499,31.7897 L31.8499,17.5477 L38.3779,17.5477 L38.3779,31.0487 C38.3779,34.6557 37.3779,37.5237 35.4069,39.5747 C33.4329,41.6307 30.6599,42.6727 27.1649,42.6727 C23.6699,42.6727 20.9039,41.6297 18.9449,39.5737 C16.9909,37.5227 15.9999,34.6547 15.9999,31.0487 L15.9999,17.5477 L22.5279,17.5477 L22.5279,31.7897 C22.5279,33.6047 22.8899,34.9137 23.6029,35.6797 C24.3099,36.4397 25.5089,36.8257 27.1649,36.8257 C28.8519,36.8257 30.0649,36.4397 30.7729,35.6797 C31.4879,34.9117 31.8499,33.6027 31.8499,31.7897 Z M55.8948,17.1715 C59.3248,17.1715 62.0538,18.0865 64.0028,19.8895 C65.9618,21.7015 66.9548,24.2625 66.9548,27.5035 L66.9548,42.2965 L60.4268,42.2965 L60.4268,27.0105 C60.4268,26.4045 60.3718,25.8965 60.2648,25.5005 C60.1598,25.1185 59.9438,24.7065 59.6218,24.2765 C59.3198,23.8755 58.8058,23.5655 58.0908,23.3545 C56.5208,22.8955 53.7998,22.9145 51.0338,23.3815 L51.0338,42.2965 L44.5068,42.2965 L44.5068,19.9445 L44.7148,19.8405 C48.2728,18.0695 52.0338,17.1715 55.8948,17.1715 Z M73.647,42.2963 L73.647,17.5473 L80.175,17.5473 L80.175,42.2963 L73.647,42.2963 Z M73.553,15.0343 L73.553,8.9993 L80.222,8.9993 L80.222,15.0343 L73.553,15.0343 Z M97.3628,34.945 L103.1018,17.547 L110.1188,17.547 L100.6508,42.297 L94.1228,42.297 L84.6538,17.547 L91.6238,17.547 L97.3628,34.945 Z M123.5213,22.6192 C122.1813,22.6192 121.1733,23.0302 120.4343,23.8762 C119.7393,24.6742 119.2963,25.9722 119.1173,27.7382 L127.9613,27.7382 C127.7733,26.3442 127.3193,25.1432 126.6103,24.1642 C125.8563,23.1252 124.8463,22.6192 123.5213,22.6192 Z M123.6623,17.1242 C127.2873,17.1242 130.0753,18.3012 131.9503,20.6222 C133.8053,22.9182 134.7453,25.7792 134.7453,29.1232 C134.7453,30.5022 134.7133,31.4892 134.6473,32.1432 L134.6133,32.4812 L119.1193,32.4812 C119.3113,34.2082 119.8693,35.3812 120.7793,35.9702 C121.7993,36.6312 123.1573,36.9662 124.8123,36.9662 C127.5623,36.9662 130.2573,36.3542 132.8243,35.1472 L133.3603,34.8952 L133.3603,40.3602 L133.1633,40.4672 C130.4593,41.9312 127.3563,42.6722 123.9443,42.6722 C122.8623,42.6722 121.8273,42.5832 120.8703,42.4082 C119.8953,42.2292 118.8753,41.8522 117.8373,41.2882 C116.7943,40.7202 115.8843,39.9882 115.1333,39.1132 C114.3763,38.2312 113.7493,37.0052 113.2703,35.4692 C112.7963,33.9452 112.5553,32.1652 112.5553,30.1802 C112.5553,26.2652 113.4463,23.0842 115.2013,20.7282 C116.9813,18.3372 119.8283,17.1242 123.6623,17.1242 Z M145.6749,17.9376 C147.7699,17.4616 149.8809,17.2026 151.9509,17.1716 L152.3329,17.1656 L152.3329,22.8726 L151.9619,22.8776 C149.7229,22.9066 147.7639,23.1446 146.1339,23.5866 L146.1339,42.2966 L139.6059,42.2966 L139.6059,19.8206 L139.8199,19.7196 C140.2189,19.5306 140.7589,19.3096 141.4709,19.0446 C142.1789,18.7806 143.5549,18.4176 145.6749,17.9376 Z M169.4966,27.9651 C170.6766,28.4861 171.6946,29.3751 172.5216,30.6081 C173.3506,31.8431 173.7716,33.4271 173.7716,35.3161 C173.7716,37.4341 172.8986,39.2131 171.1776,40.6051 C169.4806,41.9771 167.2166,42.6721 164.4496,42.6721 C161.6426,42.6721 159.0206,41.9991 156.6576,40.6701 L156.4656,40.5631 L156.4656,34.5181 L157.0506,34.9101 C159.0906,36.2741 161.3026,36.9661 163.6276,36.9661 C165.5786,36.9661 166.3426,36.6941 166.6386,36.4661 C167.0456,36.1541 167.2436,35.6851 167.2436,35.0331 C167.2436,34.4691 166.9196,34.0191 166.2536,33.6551 C165.4926,33.2401 164.5536,32.8701 163.4646,32.5561 C162.3396,32.2321 161.1986,31.8441 160.0736,31.4021 C158.8946,30.9391 157.8786,30.1651 157.0496,29.1041 C156.2106,28.0291 155.7846,26.6631 155.7846,25.0461 C155.7846,22.5201 156.6916,20.5501 158.4796,19.1871 C160.2386,17.8491 162.4526,17.1711 165.0596,17.1711 C167.4946,17.1711 169.7616,17.7651 171.7976,18.9351 L171.9866,19.0441 L171.9866,24.2491 L171.4506,23.9961 C169.8816,23.2541 168.0716,22.8771 166.0696,22.8771 C163.5766,22.8771 162.3126,23.4331 162.3126,24.5281 C162.3126,25.0511 162.6276,25.4611 163.2766,25.7791 C164.0316,26.1511 164.9706,26.4841 166.0696,26.7671 C167.2136,27.0611 168.3656,27.4641 169.4966,27.9651 Z M188.7759,22.6192 C187.4369,22.6192 186.4279,23.0302 185.6889,23.8762 C184.9939,24.6742 184.5509,25.9722 184.3719,27.7382 L193.2159,27.7382 C193.0279,26.3442 192.5739,25.1432 191.8649,24.1642 C191.1109,23.1252 190.1009,22.6192 188.7759,22.6192 Z M197.2049,20.6222 C199.0599,22.9182 199.9999,25.7792 199.9999,29.1232 C199.9999,30.5022 199.9679,31.4892 199.9019,32.1432 L199.8679,32.4812 L184.3739,32.4812 C184.5659,34.2082 185.1239,35.3812 186.0339,35.9702 C187.0539,36.6312 188.4119,36.9662 190.0679,36.9662 C192.8169,36.9662 195.5119,36.3542 198.0789,35.1472 L198.6149,34.8952 L198.6149,40.3602 L198.4179,40.4672 C195.7139,41.9312 192.6109,42.6722 189.1989,42.6722 C188.1169,42.6722 187.0819,42.5832 186.1259,42.4082 C185.1499,42.2292 184.1299,41.8522 183.0919,41.2882 C182.0489,40.7202 181.1389,39.9882 180.3879,39.1132 C179.6309,38.2312 179.0039,37.0052 178.5259,35.4692 C178.0509,33.9452 177.8099,32.1652 177.8099,30.1802 C177.8099,26.2652 178.7009,23.0842 180.4559,20.7282 C182.2359,18.3372 185.0839,17.1242 188.9169,17.1242 C192.5419,17.1242 195.3299,18.3012 197.2049,20.6222 Z" id="universe-wordmark"></path>
            </g>
        </g>
    </g>
</svg>