<?xml version="1.0" encoding="UTF-8"?>
<svg width="256px" height="256px" viewBox="0 0 256 256" version="1.1" xmlns="http://www.w3.org/2000/svg" xmlns:xlink="http://www.w3.org/1999/xlink">
    <!-- Generator: Sketch 51.3 (57544) - http://www.bohemiancoding.com/sketch -->
    <title>logo/rgb/universe-cluster-icon-rounded</title>
    <desc>Created with Sketch.</desc>
    <defs></defs>
    <g id="Symbols" stroke="none" stroke-width="1" fill="none" fill-rule="evenodd">
        <g id="logo/rgb/universe-cluster-icon-rounded">
            <g id="universe-cluster-icon-rounded">
                <g>
                    <path d="M256,76.7776 C256,60.4956 255.612,36.2776 240.455,20.4006 C225.83,5.0806 211.38,-0.0004 180.65,-0.0004 L75.35,-0.0004 C44.62,-0.0004 30.17,5.0806 15.545,20.4006 C0.388,36.2776 0,60.4956 0,76.7776 L0,179.2226 C0,195.5046 0.388,219.7226 15.545,235.5996 C30.17,250.9196 44.62,255.9996 75.35,255.9996 L180.65,255.9996 C211.38,255.9996 225.83,250.9196 240.455,235.5996 C255.612,219.7226 256,195.5046 256,179.2226 L256,76.7776 Z" id="Fill-1" fill="#000000"></path>
                    <polygon id="Fill-4" fill="#FFFFFF" points="127.8872 159.1804 139.1362 138.6114 159.7042 127.3634 139.1362 116.1144 127.8872 95.5474 116.6382 116.1144 96.0712 127.3634 116.6382 138.6114"></polygon>
                    <polygon id="Fill-6" fill="#FFFFFF" points="79.4709 101.7639 83.2989 94.7669 90.2959 90.9389 83.2989 87.1109 79.4709 80.1119 75.6429 87.1109 68.6439 90.9389 75.6429 94.7669"></polygon>
                    <polygon id="Fill-8" fill="#FFFFFF" points="74.741 69.3195 76.897 65.3795 80.838 63.2225 76.897 61.0675 74.741 57.1275 72.585 61.0675 68.644 63.2225 72.585 65.3795"></polygon>
                    <polygon id="Fill-10" fill="#FFFFFF" points="110.0391 74.0493 112.1941 70.1093 116.1381 67.9523 112.1941 65.7973 110.0391 61.8533 107.8831 65.7973 103.9421 67.9523 107.8831 70.1093"></polygon>
                    <polygon id="Fill-12" fill="#FFFFFF" points="158.927 73.0788 165.422 69.6648 171.921 73.0788 170.68 65.8438 175.935 60.7228 168.672 59.6668 165.422 53.0828 162.176 59.6668 154.911 60.7228 160.166 65.8438"></polygon>
                    <polygon id="Fill-14" fill="#FFFFFF" points="167.6401 97.0017 163.7001 99.1577 167.6401 101.3127 169.7961 105.2567 171.9511 101.3127 175.8921 99.1577 171.9511 97.0017 169.7961 93.0617"></polygon>
                    <polygon id="Fill-16" fill="#FFFFFF" points="211.0208 124.5625 205.5628 114.5815 200.1038 124.5625 190.1248 130.0205 200.1038 135.4785 205.5628 145.4585 211.0208 135.4785 220.9998 130.0205"></polygon>
                    <polygon id="Fill-18" fill="#FFFFFF" points="172.3752 161.3591 170.2192 165.2991 166.2762 167.4561 170.2192 169.6121 172.3752 173.5531 174.5302 169.6121 178.4702 167.4561 174.5302 165.2991"></polygon>
                    <polygon id="Fill-20" fill="#FFFFFF" points="165.0667 177.3977 162.9107 181.3417 158.9697 183.4967 162.9107 185.6527 165.0667 189.5937 167.2217 185.6527 171.1657 183.4967 167.2217 181.3417"></polygon>
                    <polygon id="Fill-22" fill="#FFFFFF" points="152.4834 197.7986 149.2344 191.2166 145.9864 197.7986 138.7224 198.8546 143.9774 203.9776 142.7384 211.2126 149.2344 207.7966 155.7314 211.2126 154.4914 203.9776 159.7474 198.8546"></polygon>
                    <polygon id="Fill-24" fill="#FFFFFF" points="122.3508 172.6711 120.1948 176.6111 116.2538 178.7661 120.1948 180.9231 122.3508 184.8631 124.5068 180.9231 128.4478 178.7661 124.5068 176.6111"></polygon>
                    <polygon id="Fill-26" fill="#FFFFFF" points="89.657 162.9926 85.546 154.6626 81.434 162.9926 72.243 164.3266 78.893 170.8116 77.323 179.9656 85.546 175.6446 93.766 179.9656 92.198 170.8116 98.848 164.3266"></polygon>
                    <polygon id="Fill-28" fill="#FFFFFF" points="54.4287 123.8071 51.1807 117.2251 47.9317 123.8071 40.6677 124.8631 45.9227 129.9861 44.6817 137.2191 51.1807 133.8051 57.6777 137.2191 56.4367 129.9861 61.6907 124.8631"></polygon>
                </g>
            </g>
        </g>
    </g>
</svg>