<?xml version="1.0" encoding="UTF-8"?>
<svg width="256px" height="256px" viewBox="0 0 256 256" version="1.1" xmlns="http://www.w3.org/2000/svg" xmlns:xlink="http://www.w3.org/1999/xlink">
    <!-- Generator: Sketch 51.3 (57544) - http://www.bohemiancoding.com/sketch -->
    <title>logo/rgb/universe-bug-cluster-white</title>
    <desc>Created with Sketch.</desc>
    <defs></defs>
    <g id="Symbols" stroke="none" stroke-width="1" fill="none" fill-rule="evenodd">
        <g id="logo/rgb/universe-bug-cluster-white" fill="#FFFFFF">
            <g id="universe-bug-cluster-white">
                <g transform="translate(40.000000, 53.000000)">
                    <polygon id="Fill-1" points="87.8872 106.1804 99.1362 85.6124 119.7042 74.3634 99.1362 63.1144 87.8872 42.5474 76.6382 63.1144 56.0712 74.3634 76.6382 85.6124"></polygon>
                    <polygon id="Fill-2" points="39.4709 48.7639 43.2989 41.7669 50.2959 37.9389 43.2989 34.1109 39.4709 27.1119 35.6429 34.1109 28.6439 37.9389 35.6429 41.7669"></polygon>
                    <polygon id="Fill-3" points="34.741 16.3195 36.897 12.3795 40.838 10.2225 36.897 8.0675 34.741 4.1275 32.585 8.0675 28.644 10.2225 32.585 12.3795"></polygon>
                    <polygon id="Fill-4" points="70.0391 21.0493 72.1941 17.1093 76.1381 14.9523 72.1941 12.7973 70.0391 8.8543 67.8831 12.7973 63.9421 14.9523 67.8831 17.1093"></polygon>
                    <polygon id="Fill-5" points="118.927 20.0787 125.422 16.6647 131.921 20.0787 130.68 12.8437 135.935 7.7227 128.672 6.6667 125.422 0.0827 122.176 6.6667 114.911 7.7227 120.166 12.8437"></polygon>
                    <polygon id="Fill-6" points="127.6401 44.0016 123.7001 46.1576 127.6401 48.3126 129.7961 52.2566 131.9511 48.3126 135.8921 46.1576 131.9511 44.0016 129.7961 40.0616"></polygon>
                    <polygon id="Fill-7" points="171.0208 71.5624 165.5628 61.5814 160.1038 71.5624 150.1248 77.0204 160.1038 82.4784 165.5628 92.4594 171.0208 82.4784 180.9998 77.0204"></polygon>
                    <polygon id="Fill-8" points="132.3752 108.3591 130.2192 112.2991 126.2762 114.4561 130.2192 116.6121 132.3752 120.5531 134.5302 116.6121 138.4702 114.4561 134.5302 112.2991"></polygon>
                    <polygon id="Fill-9" points="125.0667 124.3977 122.9107 128.3417 118.9697 130.4967 122.9107 132.6527 125.0667 136.5937 127.2217 132.6527 131.1657 130.4967 127.2217 128.3417"></polygon>
                    <polygon id="Fill-10" points="112.4834 144.7986 109.2344 138.2166 105.9864 144.7986 98.7224 145.8546 103.9774 150.9776 102.7384 158.2126 109.2344 154.7966 115.7314 158.2126 114.4914 150.9776 119.7474 145.8546"></polygon>
                    <polygon id="Fill-11" points="82.3508 119.6711 80.1948 123.6111 76.2538 125.7661 80.1948 127.9231 82.3508 131.8631 84.5068 127.9231 88.4478 125.7661 84.5068 123.6111"></polygon>
                    <polygon id="Fill-12" points="49.657 109.9927 45.546 101.6627 41.434 109.9927 32.243 111.3277 38.893 117.8117 37.323 126.9657 45.546 122.6447 53.766 126.9657 52.198 117.8117 58.848 111.3277"></polygon>
                    <polygon id="Fill-13" points="14.4287 70.8071 11.1807 64.2251 7.9317 70.8071 0.6677 71.8631 5.9227 76.9861 4.6817 84.2191 11.1807 80.8051 17.6777 84.2191 16.4367 76.9861 21.6907 71.8631"></polygon>
                </g>
            </g>
        </g>
    </g>
</svg>