<?xml version="1.0" encoding="UTF-8"?>
<svg width="256px" height="256px" viewBox="0 0 256 256" version="1.1" xmlns="http://www.w3.org/2000/svg" xmlns:xlink="http://www.w3.org/1999/xlink">
    <!-- Generator: Sketch 52.2 (67145) - http://www.bohemiancoding.com/sketch -->
    <title>logo/rgb/universe-mite-icon-rounded</title>
    <desc>Created with Sketch.</desc>
    <g id="Symbols" stroke="none" stroke-width="1" fill="none" fill-rule="evenodd">
        <g id="logo/rgb/universe-mite-icon-rounded">
            <g id="universe-mite-icon-rounded">
                <g id="Page"></g>
                <path d="M256,76.7776 C256,60.4956 255.612,36.2776 240.455,20.4006 C225.83,5.0806 211.38,-0.0004 180.65,-0.0004 L75.35,-0.0004 C44.62,-0.0004 30.17,5.0806 15.545,20.4006 C0.388,36.2776 0,60.4956 0,76.7776 L0,179.2226 C0,195.5046 0.388,219.7226 15.545,235.5996 C30.17,250.9196 44.62,255.9996 75.35,255.9996 L180.65,255.9996 C211.38,255.9996 225.83,250.9196 240.455,235.5996 C255.612,219.7226 256,195.5046 256,179.2226 L256,76.7776 Z" id="Fill-1" fill="#000000"></path>
                <g id="Group-36" transform="translate(14.000000, 23.000000)" fill="#FFFFFF">
                    <polygon id="Fill-4" points="8.2275 49.8813 0.1675 44.9213 8.2275 39.9613 16.2875 44.9213"></polygon>
                    <polygon id="Fill-5" points="8.2275 89.3716 0.1675 84.4116 8.2275 79.4516 16.2875 84.4116"></polygon>
                    <polygon id="Fill-6" points="8.2275 128.8618 0.1675 123.9018 8.2275 118.9418 16.2875 123.9018"></polygon>
                    <polygon id="Fill-7" points="8.2275 168.352 0.1675 163.392 8.2275 158.432 16.2875 163.392"></polygon>
                    <polygon id="Fill-8" points="50.6797 10.3906 42.6197 5.4316 50.6797 0.4716 58.7397 5.4316"></polygon>
                    <polygon id="Fill-9" points="50.6797 49.8813 42.6197 44.9213 50.6797 39.9613 58.7397 44.9213"></polygon>
                    <polygon id="Fill-10" points="50.6797 89.3716 42.6197 84.4116 50.6797 79.4516 58.7397 84.4116"></polygon>
                    <polygon id="Fill-11" points="50.6797 128.8618 42.6197 123.9018 50.6797 118.9418 58.7397 123.9018"></polygon>
                    <polygon id="Fill-12" points="50.6797 168.352 42.6197 163.392 50.6797 158.432 58.7397 163.392"></polygon>
                    <polygon id="Fill-13" points="50.6797 207.8423 42.6197 202.8833 50.6797 197.9233 58.7397 202.8833"></polygon>
                    <polygon id="Fill-14" points="93.1318 10.3906 85.0718 5.4316 93.1318 0.4716 101.1918 5.4316"></polygon>
                    <polygon id="Fill-15" points="93.1318 49.8813 85.0718 44.9213 93.1318 39.9613 101.1918 44.9213"></polygon>
                    <polygon id="Fill-16" points="93.1318 89.3716 85.0718 84.4116 93.1318 79.4516 101.1918 84.4116"></polygon>
                    <polygon id="Fill-17" points="93.1318 128.8618 85.0718 123.9018 93.1318 118.9418 101.1918 123.9018"></polygon>
                    <polygon id="Fill-18" points="93.1318 168.352 85.0718 163.392 93.1318 158.432 101.1918 163.392"></polygon>
                    <polygon id="Fill-19" points="93.1318 207.8423 85.0718 202.8833 93.1318 197.9233 101.1918 202.8833"></polygon>
                    <polygon id="Fill-20" points="135.584 10.3906 127.524 5.4316 135.584 0.4716 143.644 5.4316"></polygon>
                    <polygon id="Fill-21" points="135.584 49.8813 127.524 44.9213 135.584 39.9613 143.644 44.9213"></polygon>
                    <polygon id="Fill-22" points="135.584 89.3716 127.524 84.4116 135.584 79.4516 143.644 84.4116"></polygon>
                    <polygon id="Fill-23" points="135.584 128.8618 127.524 123.9018 135.584 118.9418 143.644 123.9018"></polygon>
                    <polygon id="Fill-24" points="135.584 168.352 127.524 163.392 135.584 158.432 143.644 163.392"></polygon>
                    <polygon id="Fill-25" points="135.584 207.8423 127.524 202.8833 135.584 197.9233 143.644 202.8833"></polygon>
                    <polygon id="Fill-26" points="178.0361 10.3906 169.9761 5.4316 178.0361 0.4716 186.0961 5.4316"></polygon>
                    <polygon id="Fill-27" points="178.0361 49.8813 169.9761 44.9213 178.0361 39.9613 186.0961 44.9213"></polygon>
                    <polygon id="Fill-28" points="178.0361 89.3716 169.9761 84.4116 178.0361 79.4516 186.0961 84.4116"></polygon>
                    <polygon id="Fill-29" points="178.0361 128.8618 169.9761 123.9018 178.0361 118.9418 186.0961 123.9018"></polygon>
                    <polygon id="Fill-30" points="178.0361 168.352 169.9761 163.392 178.0361 158.432 186.0961 163.392"></polygon>
                    <polygon id="Fill-31" points="178.0361 207.8423 169.9761 202.8833 178.0361 197.9233 186.0961 202.8833"></polygon>
                    <polygon id="Fill-32" points="220.4878 49.8813 212.4278 44.9213 220.4878 39.9613 228.5478 44.9213"></polygon>
                    <polygon id="Fill-33" points="220.4878 89.3716 212.4278 84.4116 220.4878 79.4516 228.5478 84.4116"></polygon>
                    <polygon id="Fill-34" points="220.4878 128.8618 212.4278 123.9018 220.4878 118.9418 228.5478 123.9018"></polygon>
                    <polygon id="Fill-35" points="220.4878 168.352 212.4278 163.392 220.4878 158.432 228.5478 163.392"></polygon>
                </g>
            </g>
        </g>
    </g>
</svg>