<?xml version="1.0" encoding="UTF-8"?>
<svg width="215px" height="56px" viewBox="0 0 215 56" version="1.1" xmlns="http://www.w3.org/2000/svg" xmlns:xlink="http://www.w3.org/1999/xlink">
    <!-- Generator: Sketch 51.3 (57544) - http://www.bohemiancoding.com/sketch -->
    <title>logo/rgb/universe-wordmark-white</title>
    <desc>Created with Sketch.</desc>
    <defs></defs>
    <g id="Symbols" stroke="none" stroke-width="1" fill="none" fill-rule="evenodd">
        <g id="logo/rgb/universe-wordmark-white" fill="#FFFFFF">
            <g id="universe-wordmark-white">
                <g id="universe-wordmark" transform="translate(16.000000, 8.000000)">
                    <path d="M15.8499,23.7897 C15.8499,25.6027 15.4879,26.9117 14.7729,27.6797 C14.0649,28.4397 12.8519,28.8257 11.1649,28.8257 C9.5089,28.8257 8.3099,28.4397 7.6029,27.6797 C6.8899,26.9137 6.5279,25.6047 6.5279,23.7897 L6.5279,9.5477 L-0.0001,9.5477 L-0.0001,23.0487 C-0.0001,26.6547 0.9909,29.5227 2.9449,31.5737 C4.9039,33.6297 7.6699,34.6727 11.1649,34.6727 C14.6599,34.6727 17.4329,33.6307 19.4069,31.5747 C21.3779,29.5237 22.3779,26.6557 22.3779,23.0487 L22.3779,9.5477 L15.8499,9.5477 L15.8499,23.7897 Z" id="Fill-1"></path>
                    <path d="M39.8948,9.1715 C36.0338,9.1715 32.2728,10.0695 28.7148,11.8405 L28.5068,11.9445 L28.5068,34.2965 L35.0338,34.2965 L35.0338,15.3815 C37.7998,14.9145 40.5208,14.8955 42.0908,15.3545 C42.8058,15.5655 43.3198,15.8755 43.6218,16.2765 C43.9438,16.7065 44.1598,17.1185 44.2648,17.5005 C44.3718,17.8965 44.4268,18.4045 44.4268,19.0105 L44.4268,34.2965 L50.9548,34.2965 L50.9548,19.5035 C50.9548,16.2625 49.9618,13.7015 48.0028,11.8895 C46.0538,10.0865 43.3248,9.1715 39.8948,9.1715" id="Fill-4"></path>
                    <polygon id="Fill-8" points="57.647 34.2963 64.175 34.2963 64.175 9.5473 57.647 9.5473"></polygon>
                    <polygon id="Fill-6" points="57.553 7.0343 64.222 7.0343 64.222 0.9993 57.553 0.9993"></polygon>
                    <polygon id="Fill-9" points="81.3628 26.945 75.6238 9.547 68.6538 9.547 78.1228 34.297 84.6508 34.297 94.1188 9.547 87.1018 9.547"></polygon>
                    <path d="M107.5213,14.6192 C108.8463,14.6192 109.8563,15.1252 110.6103,16.1642 C111.3193,17.1432 111.7733,18.3442 111.9613,19.7382 L103.1173,19.7382 C103.2963,17.9722 103.7393,16.6742 104.4343,15.8762 C105.1733,15.0302 106.1813,14.6192 107.5213,14.6192 M107.6623,9.1242 C103.8283,9.1242 100.9813,10.3372 99.2013,12.7282 C97.4463,15.0842 96.5553,18.2652 96.5553,22.1802 C96.5553,24.1652 96.7963,25.9452 97.2703,27.4692 C97.7493,29.0052 98.3763,30.2312 99.1333,31.1132 C99.8843,31.9882 100.7943,32.7202 101.8373,33.2882 C102.8753,33.8522 103.8953,34.2292 104.8703,34.4082 C105.8273,34.5832 106.8623,34.6722 107.9443,34.6722 C111.3563,34.6722 114.4593,33.9312 117.1633,32.4672 L117.3603,32.3602 L117.3603,26.8952 L116.8243,27.1472 C114.2573,28.3542 111.5623,28.9662 108.8123,28.9662 C107.1573,28.9662 105.7993,28.6312 104.7793,27.9702 C103.8693,27.3812 103.3113,26.2082 103.1193,24.4812 L118.6133,24.4812 L118.6473,24.1432 C118.7133,23.4892 118.7453,22.5022 118.7453,21.1232 C118.7453,17.7792 117.8053,14.9182 115.9503,12.6222 C114.0753,10.3012 111.2873,9.1242 107.6623,9.1242" id="Fill-10"></path>
                    <path d="M129.6749,9.9376 C127.5549,10.4176 126.1789,10.7806 125.4709,11.0446 C124.7589,11.3096 124.2189,11.5306 123.8199,11.7196 L123.6059,11.8206 L123.6059,34.2966 L130.1339,34.2966 L130.1339,15.5866 C131.7639,15.1446 133.7229,14.9066 135.9619,14.8776 L136.3329,14.8726 L136.3329,9.1656 L135.9509,9.1716 C133.8809,9.2026 131.7699,9.4616 129.6749,9.9376" id="Fill-11"></path>
                    <path d="M153.4966,19.9651 C152.3656,19.4641 151.2136,19.0611 150.0696,18.7671 C148.9706,18.4841 148.0316,18.1511 147.2766,17.7791 C146.6276,17.4611 146.3126,17.0511 146.3126,16.5281 C146.3126,15.4331 147.5766,14.8771 150.0696,14.8771 C152.0716,14.8771 153.8816,15.2541 155.4506,15.9961 L155.9866,16.2491 L155.9866,11.0441 L155.7976,10.9351 C153.7616,9.7651 151.4946,9.1711 149.0596,9.1711 C146.4526,9.1711 144.2386,9.8491 142.4796,11.1871 C140.6916,12.5501 139.7846,14.5201 139.7846,17.0461 C139.7846,18.6631 140.2106,20.0291 141.0496,21.1041 C141.8786,22.1651 142.8946,22.9391 144.0736,23.4021 C145.1986,23.8441 146.3396,24.2321 147.4646,24.5561 C148.5536,24.8701 149.4926,25.2401 150.2536,25.6551 C150.9196,26.0191 151.2436,26.4691 151.2436,27.0331 C151.2436,27.6851 151.0456,28.1541 150.6386,28.4661 C150.3426,28.6941 149.5786,28.9661 147.6276,28.9661 C145.3026,28.9661 143.0906,28.2741 141.0506,26.9101 L140.4656,26.5181 L140.4656,32.5631 L140.6576,32.6701 C143.0206,33.9991 145.6426,34.6721 148.4496,34.6721 C151.2166,34.6721 153.4806,33.9771 155.1776,32.6051 C156.8986,31.2131 157.7716,29.4341 157.7716,27.3161 C157.7716,25.4271 157.3506,23.8431 156.5216,22.6081 C155.6946,21.3751 154.6766,20.4861 153.4966,19.9651" id="Fill-12"></path>
                    <path d="M172.7759,14.6192 C174.1009,14.6192 175.1109,15.1252 175.8649,16.1642 C176.5739,17.1432 177.0279,18.3442 177.2159,19.7382 L168.3719,19.7382 C168.5509,17.9722 168.9939,16.6742 169.6889,15.8762 C170.4279,15.0302 171.4369,14.6192 172.7759,14.6192 M181.2049,12.6222 C179.3299,10.3012 176.5419,9.1242 172.9169,9.1242 C169.0839,9.1242 166.2359,10.3372 164.4559,12.7282 C162.7009,15.0842 161.8099,18.2652 161.8099,22.1802 C161.8099,24.1652 162.0509,25.9452 162.5259,27.4692 C163.0039,29.0052 163.6309,30.2312 164.3879,31.1132 C165.1389,31.9882 166.0489,32.7202 167.0919,33.2882 C168.1299,33.8522 169.1499,34.2292 170.1259,34.4082 C171.0819,34.5832 172.1169,34.6722 173.1989,34.6722 C176.6109,34.6722 179.7139,33.9312 182.4179,32.4672 L182.6149,32.3602 L182.6149,26.8952 L182.0789,27.1472 C179.5119,28.3542 176.8169,28.9662 174.0679,28.9662 C172.4119,28.9662 171.0539,28.6312 170.0339,27.9702 C169.1239,27.3812 168.5659,26.2082 168.3739,24.4812 L183.8679,24.4812 L183.9019,24.1432 C183.9679,23.4892 183.9999,22.5022 183.9999,21.1232 C183.9999,17.7792 183.0599,14.9182 181.2049,12.6222" id="Fill-13"></path>
                </g>
            </g>
        </g>
    </g>
</svg>