<?xml version="1.0" encoding="UTF-8"?>
<svg width="360px" height="132px" viewBox="0 0 360 132" version="1.1" xmlns="http://www.w3.org/2000/svg" xmlns:xlink="http://www.w3.org/1999/xlink">
    <!-- Generator: Sketch 51.3 (57544) - http://www.bohemiancoding.com/sketch -->
    <title>logo/rgb/universe-logo-white</title>
    <desc>Created with Sketch.</desc>
    <defs></defs>
    <g id="Symbols" stroke="none" stroke-width="1" fill="none" fill-rule="evenodd">
        <g id="logo/rgb/universe-logo-white" fill="#FFFFFF">
            <g id="universe-logo-white">
                <g id="universe-bug-cluster" transform="translate(20.000000, 22.000000)">
                    <polygon id="Fill-1" points="49.8457 60.6348 56.2747 48.8798 68.0297 42.4508 56.2747 36.0228 49.8457 24.2688 43.4167 36.0228 31.6627 42.4508 43.4167 48.8798"></polygon>
                    <polygon id="Fill-2" points="22.1757 27.8213 24.3637 23.8223 28.3627 21.6343 24.3637 19.4473 22.1757 15.4473 19.9877 19.4473 15.9887 21.6343 19.9877 23.8223"></polygon>
                    <polygon id="Fill-3" points="19.4726 9.2793 20.7046 7.0273 22.9566 5.7953 20.7046 4.5633 19.4726 2.3113 18.2406 4.5633 15.9886 5.7953 18.2406 7.0273"></polygon>
                    <polygon id="Fill-4" points="39.6455 11.9824 40.8765 9.7304 43.1305 8.4984 40.8765 7.2664 39.6455 5.0124 38.4135 7.2664 36.1615 8.4984 38.4135 9.7304"></polygon>
                    <polygon id="Fill-5" points="71.2971 0.0003 69.4411 3.7623 65.2891 4.3663 68.2931 7.2933 67.5841 11.4273 71.2971 9.4763 75.0101 11.4273 74.3011 7.2933 77.3041 4.3663 73.1551 3.7623"></polygon>
                    <polygon id="Fill-6" points="72.5644 25.0996 70.3124 26.3316 72.5644 27.5636 73.7964 29.8176 75.0284 27.5636 77.2804 26.3316 75.0284 25.0996 73.7964 22.8476"></polygon>
                    <polygon id="Fill-7" points="97.3564 40.8506 94.2374 35.1466 91.1174 40.8506 85.4144 43.9696 91.1174 47.0886 94.2374 52.7926 97.3564 47.0886 103.0594 43.9696"></polygon>
                    <polygon id="Fill-8" points="75.2705 61.8799 74.0385 64.1319 71.7855 65.3639 74.0385 66.5969 75.2705 68.8489 76.5015 66.5969 78.7535 65.3639 76.5015 64.1319"></polygon>
                    <polygon id="Fill-9" points="71.0937 71.0459 69.8617 73.2999 67.6097 74.5309 69.8617 75.7639 71.0937 78.0159 72.3247 75.7639 74.5787 74.5309 72.3247 73.2999"></polygon>
                    <polygon id="Fill-10" points="60.1893 82.7049 56.0373 83.3089 59.0413 86.2369 58.3323 90.3709 62.0463 88.4189 65.7583 90.3709 65.0503 86.2369 68.0533 83.3089 63.9023 82.7049 62.0463 78.9439"></polygon>
                    <polygon id="Fill-11" points="46.6816 68.3447 45.4496 70.5967 43.1976 71.8277 45.4496 73.0607 46.6816 75.3127 47.9136 73.0607 50.1656 71.8277 47.9136 70.5967"></polygon>
                    <polygon id="Fill-12" points="27.997 62.8135 25.647 58.0525 23.298 62.8135 18.045 63.5765 21.846 67.2825 20.948 72.5135 25.647 70.0435 30.346 72.5135 29.449 67.2825 33.25 63.5765"></polygon>
                    <polygon id="Fill-13" points="4.1517 40.4193 -0.0003 41.0223 3.0037 43.9503 2.2937 48.0833 6.0077 46.1323 9.7207 48.0833 9.0117 43.9503 12.0147 41.0223 7.8637 40.4193 6.0077 36.6573"></polygon>
                </g>
                <g id="universe-wordmark" transform="translate(150.000000, 45.371100)">
                    <path d="M16.5124,23.4366 C16.5124,25.2496 16.1504,26.5586 15.4354,27.3266 C14.7274,28.0866 13.5144,28.4726 11.8274,28.4726 C10.1714,28.4726 8.9724,28.0866 8.2654,27.3266 C7.5524,26.5606 7.1904,25.2516 7.1904,23.4366 L7.1904,9.1946 L0.6624,9.1946 L0.6624,22.6956 C0.6624,26.3016 1.6534,29.1696 3.6074,31.2206 C5.5664,33.2766 8.3324,34.3196 11.8274,34.3196 C15.3224,34.3196 18.0954,33.2776 20.0694,31.2216 C22.0404,29.1706 23.0404,26.3026 23.0404,22.6956 L23.0404,9.1946 L16.5124,9.1946 L16.5124,23.4366 Z" id="Fill-14"></path>
                    <path d="M40.5573,8.8185 C36.6963,8.8185 32.9353,9.7165 29.3773,11.4875 L29.1693,11.5915 L29.1693,33.9435 L35.6963,33.9435 L35.6963,15.0285 C38.4623,14.5615 41.1833,14.5425 42.7533,15.0015 C43.4683,15.2125 43.9823,15.5225 44.2843,15.9235 C44.6063,16.3535 44.8223,16.7655 44.9273,17.1475 C45.0343,17.5435 45.0893,18.0515 45.0893,18.6575 L45.0893,33.9435 L51.6173,33.9435 L51.6173,19.1505 C51.6173,15.9095 50.6243,13.3485 48.6653,11.5365 C46.7163,9.7335 43.9873,8.8185 40.5573,8.8185" id="Fill-16"></path>
                    <polygon id="Fill-20" points="58.309 33.944 64.837 33.944 64.837 9.195 58.309 9.195"></polygon>
                    <polygon id="Fill-18" points="58.215 6.682 64.884 6.682 64.884 0.647 58.215 0.647"></polygon>
                    <polygon id="Fill-21" points="82.0253 26.5919 76.2863 9.1939 69.3163 9.1939 78.7853 33.9439 85.3133 33.9439 94.7813 9.1939 87.7643 9.1939"></polygon>
                    <path d="M108.1838,14.2661 C109.5088,14.2661 110.5188,14.7721 111.2728,15.8111 C111.9818,16.7901 112.4358,17.9911 112.6238,19.3851 L103.7798,19.3851 C103.9588,17.6191 104.4018,16.3211 105.0968,15.5231 C105.8358,14.6771 106.8438,14.2661 108.1838,14.2661 M108.3248,8.7711 C104.4908,8.7711 101.6438,9.9841 99.8638,12.3751 C98.1088,14.7311 97.2178,17.9121 97.2178,21.8271 C97.2178,23.8121 97.4588,25.5921 97.9328,27.1161 C98.4118,28.6521 99.0388,29.8781 99.7958,30.7601 C100.5468,31.6351 101.4568,32.3671 102.4998,32.9351 C103.5378,33.4991 104.5578,33.8761 105.5328,34.0551 C106.4898,34.2301 107.5248,34.3191 108.6068,34.3191 C112.0188,34.3191 115.1218,33.5781 117.8258,32.1141 L118.0228,32.0071 L118.0228,26.5421 L117.4868,26.7941 C114.9198,28.0011 112.2248,28.6131 109.4748,28.6131 C107.8198,28.6131 106.4618,28.2781 105.4418,27.6171 C104.5318,27.0281 103.9738,25.8551 103.7818,24.1281 L119.2758,24.1281 L119.3098,23.7901 C119.3758,23.1361 119.4078,22.1491 119.4078,20.7701 C119.4078,17.4261 118.4678,14.5651 116.6128,12.2691 C114.7378,9.9481 111.9498,8.7711 108.3248,8.7711" id="Fill-22"></path>
                    <path d="M130.3374,9.5846 C128.2174,10.0646 126.8414,10.4276 126.1334,10.6916 C125.4214,10.9566 124.8814,11.1776 124.4824,11.3666 L124.2684,11.4676 L124.2684,33.9436 L130.7964,33.9436 L130.7964,15.2336 C132.4264,14.7916 134.3854,14.5536 136.6244,14.5246 L136.9954,14.5196 L136.9954,8.8126 L136.6134,8.8186 C134.5434,8.8496 132.4324,9.1086 130.3374,9.5846" id="Fill-23"></path>
                    <path d="M154.1591,19.6121 C153.0281,19.1111 151.8761,18.7081 150.7321,18.4141 C149.6331,18.1311 148.6941,17.7981 147.9391,17.4261 C147.2901,17.1081 146.9751,16.6981 146.9751,16.1751 C146.9751,15.0801 148.2391,14.5241 150.7321,14.5241 C152.7341,14.5241 154.5441,14.9011 156.1131,15.6431 L156.6491,15.8961 L156.6491,10.6911 L156.4601,10.5821 C154.4241,9.4121 152.1571,8.8181 149.7221,8.8181 C147.1151,8.8181 144.9011,9.4961 143.1421,10.8341 C141.3541,12.1971 140.4471,14.1671 140.4471,16.6931 C140.4471,18.3101 140.8731,19.6761 141.7121,20.7511 C142.5411,21.8121 143.5571,22.5861 144.7361,23.0491 C145.8611,23.4911 147.0021,23.8791 148.1271,24.2031 C149.2161,24.5171 150.1551,24.8871 150.9161,25.3021 C151.5821,25.6661 151.9061,26.1161 151.9061,26.6801 C151.9061,27.3321 151.7081,27.8011 151.3011,28.1131 C151.0051,28.3411 150.2411,28.6131 148.2901,28.6131 C145.9651,28.6131 143.7531,27.9211 141.7131,26.5571 L141.1281,26.1651 L141.1281,32.2101 L141.3201,32.3171 C143.6831,33.6461 146.3051,34.3191 149.1121,34.3191 C151.8791,34.3191 154.1431,33.6241 155.8401,32.2521 C157.5611,30.8601 158.4341,29.0811 158.4341,26.9631 C158.4341,25.0741 158.0131,23.4901 157.1841,22.2551 C156.3571,21.0221 155.3391,20.1331 154.1591,19.6121" id="Fill-24"></path>
                    <path d="M173.4384,14.2661 C174.7634,14.2661 175.7734,14.7721 176.5274,15.8111 C177.2364,16.7901 177.6904,17.9911 177.8784,19.3851 L169.0344,19.3851 C169.2134,17.6191 169.6564,16.3211 170.3514,15.5231 C171.0904,14.6771 172.0994,14.2661 173.4384,14.2661 M181.8674,12.2691 C179.9924,9.9481 177.2044,8.7711 173.5794,8.7711 C169.7464,8.7711 166.8984,9.9841 165.1184,12.3751 C163.3634,14.7311 162.4724,17.9121 162.4724,21.8271 C162.4724,23.8121 162.7134,25.5921 163.1884,27.1161 C163.6664,28.6521 164.2934,29.8781 165.0504,30.7601 C165.8014,31.6351 166.7114,32.3671 167.7544,32.9351 C168.7924,33.4991 169.8124,33.8761 170.7884,34.0551 C171.7444,34.2301 172.7794,34.3191 173.8614,34.3191 C177.2734,34.3191 180.3764,33.5781 183.0804,32.1141 L183.2774,32.0071 L183.2774,26.5421 L182.7414,26.7941 C180.1744,28.0011 177.4794,28.6131 174.7304,28.6131 C173.0744,28.6131 171.7164,28.2781 170.6964,27.6171 C169.7864,27.0281 169.2284,25.8551 169.0364,24.1281 L184.5304,24.1281 L184.5644,23.7901 C184.6304,23.1361 184.6624,22.1491 184.6624,20.7701 C184.6624,17.4261 183.7224,14.5651 181.8674,12.2691" id="Fill-25"></path>
                </g>
            </g>
        </g>
    </g>
</svg>